# Blender v2.91.2 OBJ File: 'brother_bobby.blend'
# www.blender.org
mtllib brother_bobby.mtl
o body_球体.001
v -0.514246 0.470529 0.514246
v -0.613696 -0.000000 0.613696
v -0.500000 -0.525319 0.500000
v -0.514246 0.470529 -0.514246
v -0.613696 -0.000000 -0.613695
v -0.500000 -0.525319 -0.500000
v -0.234055 0.470529 -0.630305
v -0.197307 -0.000000 -0.786169
v -0.227571 -0.525319 -0.612844
v -0.234055 0.470529 0.630305
v -0.197307 -0.000000 0.786169
v -0.227571 -0.525319 0.612844
v -0.600696 0.470529 0.305538
v -0.600696 0.470529 -0.305537
v -0.761198 -0.000000 -0.257593
v -0.761198 -0.000000 0.257594
v -0.584055 -0.525319 -0.297073
v -0.584055 -0.525319 0.297073
v -0.324032 0.825210 -0.283467
v -0.324032 0.825210 0.283468
v -0.224673 -1.452083 -0.598044
v -0.224673 -1.452083 0.598045
v -0.489254 -1.453592 -0.489184
v -0.489254 -1.453592 0.489184
v -0.569670 -1.452956 -0.294228
v -0.569670 -1.452956 0.294228
v -0.201357 -1.950683 0.170600
v -0.201356 -1.950683 -0.170600
v -0.417489 -1.564563 0.365225
v -0.417489 -1.564564 -0.365225
v 0.514246 0.470529 0.514246
v 0.613696 -0.000000 0.613696
v 0.500000 -0.525319 0.500000
v 0.514246 0.470529 -0.514246
v 0.613696 -0.000000 -0.613695
v 0.500000 -0.525319 -0.500000
v 0.234055 0.470529 -0.630305
v 0.197307 -0.000000 -0.786169
v 0.227571 -0.525319 -0.612844
v 0.234055 0.470529 0.630305
v 0.197307 -0.000000 0.786169
v 0.227571 -0.525319 0.612844
v 0.600696 0.470529 0.305538
v 0.600696 0.470529 -0.305537
v 0.761198 -0.000000 -0.257593
v 0.761198 -0.000000 0.257594
v 0.584055 -0.525319 -0.297073
v 0.584055 -0.525319 0.297073
v 0.324032 0.825210 -0.283467
v 0.324032 0.825210 0.283468
v 0.224673 -1.452083 -0.598044
v 0.224673 -1.452083 0.598045
v 0.489254 -1.453592 -0.489184
v 0.489254 -1.453592 0.489184
v 0.569670 -1.452956 -0.294228
v 0.569670 -1.452956 0.294228
v 0.201357 -1.950683 0.170600
v 0.201356 -1.950683 -0.170600
v 0.417489 -1.564563 0.365225
v 0.417489 -1.564564 -0.365225
v 0.000000 0.470529 -0.630305
v 0.000000 -0.000000 -0.786169
v 0.000000 -0.525319 -0.612844
v 0.000000 0.470529 0.630305
v 0.000000 -0.000000 0.786169
v 0.000000 -0.525319 0.612844
v 0.000000 0.825210 0.283468
v 0.000000 0.825210 -0.283467
v 0.000000 -1.564564 0.365225
v 0.000000 -1.564564 -0.365225
v 0.000000 -1.452083 -0.598044
v 0.000000 -1.452083 0.598045
v 0.000000 -1.950683 0.170600
v 0.000000 -1.950683 -0.170600
vt 0.078886 0.325005
vt 0.068265 0.426956
vt 0.022031 0.425824
vt 0.000000 0.323074
vt 0.070140 0.206518
vt 0.025186 0.205417
vt 0.629334 0.207108
vt 0.636038 0.326022
vt 0.543797 0.323168
vt 0.568984 0.205241
vt 0.324175 0.704191
vt 0.324174 0.781025
vt 0.272325 0.781025
vt 0.252393 0.704191
vt 0.201128 0.001194
vt 0.244316 0.000000
vt 0.246712 0.205417
vt 0.201759 0.206518
vt 0.249868 0.425824
vt 0.198745 0.501767
vt 0.203634 0.426956
vt 0.070770 0.001194
vt 0.271899 0.323074
vt 0.193013 0.325005
vt 0.627897 0.427386
vt 0.565828 0.425466
vt 0.073154 0.501767
vt 0.571364 0.000000
vt 0.629976 0.002134
vt 0.790509 0.705241
vt 0.815696 0.823168
vt 0.723455 0.826022
vt 0.730159 0.707108
vt 0.679746 0.927386
vt 0.679746 0.826022
vt 0.731595 0.927386
vt 0.679746 0.707108
vt 0.793665 0.925466
vt 0.751528 1.000000
vt 0.607965 0.500000
vt 0.729517 0.502134
vt 0.788129 0.500000
vt 0.027583 0.000000
vt 0.033712 0.553343
vt 0.017814 0.525883
vt 0.076426 0.501767
vt 0.033712 0.715156
vt 0.076426 0.766732
vt 0.017814 0.742616
vt 0.000000 0.569070
vt 0.126197 0.501767
vt 0.126197 0.553343
vt 0.000000 0.699429
vt 0.000000 0.811337
vt 0.000000 0.766732
vt 0.075585 0.766732
vt 0.075585 0.811337
vt 0.903911 0.043114
vt 0.903911 0.118699
vt 0.815696 0.161813
vt 0.815696 0.000000
vt 0.395956 0.779221
vt 0.395956 0.734615
vt 0.484472 0.686737
vt 0.484472 0.779221
vt 0.679746 0.502134
vt 0.395956 0.638858
vt 0.395956 0.594252
vt 0.484472 0.594252
vt 0.484472 0.686737
vt 0.126197 0.715156
vt 0.126197 0.766732
vt 0.679746 0.002134
vt 0.679746 0.207108
vt 0.252393 0.578601
vt 0.324175 0.578601
vt 0.679746 0.326022
vt 0.679746 0.427386
vt 0.272325 0.501767
vt 0.324175 0.501767
vt 0.464911 0.325005
vt 0.543797 0.323074
vt 0.521766 0.425824
vt 0.475532 0.426956
vt 0.473657 0.206518
vt 0.518611 0.205417
vt 0.730159 0.207108
vt 0.790509 0.205241
vt 0.815696 0.323168
vt 0.723455 0.326022
vt 0.395956 0.704191
vt 0.376024 0.781025
vt 0.342669 0.001194
vt 0.342038 0.206518
vt 0.297085 0.205417
vt 0.299481 0.000000
vt 0.293929 0.425824
vt 0.340163 0.426956
vt 0.345052 0.501767
vt 0.473027 0.001194
vt 0.271899 0.323074
vt 0.350784 0.325005
vt 0.793665 0.425466
vt 0.731595 0.427386
vt 0.470643 0.501767
vt 0.788129 0.000000
vt 0.729517 0.002134
vt 0.568984 0.705241
vt 0.629334 0.707108
vt 0.636038 0.826022
vt 0.543797 0.823168
vt 0.627897 0.927386
vt 0.565828 0.925466
vt 0.607965 1.000000
vt 0.751528 0.500000
vt 0.629976 0.502134
vt 0.571364 0.500000
vt 0.516214 0.000000
vt 0.218681 0.553343
vt 0.175967 0.501767
vt 0.234579 0.525883
vt 0.218681 0.715156
vt 0.234579 0.742616
vt 0.175967 0.766732
vt 0.252393 0.569070
vt 0.252393 0.699429
vt 0.075584 0.855943
vt 0.000000 0.855943
vt 0.903911 0.280512
vt 0.815696 0.323627
vt 0.815696 0.161813
vt 0.903911 0.204928
vt 0.484472 0.871706
vt 0.395956 0.823827
vt 0.395956 0.549646
vt 0.484472 0.501767
vt 0.395956 0.578601
vt 0.376024 0.501767
vn -0.8905 0.2662 -0.3689
vn -0.8890 -0.2721 -0.3682
vn -0.3682 -0.2721 0.8890
vn -0.0000 0.6992 -0.7150
vn -0.9241 -0.0153 0.3819
vn -0.7411 0.5972 0.3070
vn -0.9999 -0.0155 0.0000
vn -0.8905 0.2662 0.3689
vn -0.3689 0.2662 0.8905
vn -0.7411 0.5972 -0.3070
vn -0.8890 -0.2721 0.3682
vn -0.3815 -0.0156 0.9242
vn -0.3682 -0.2721 -0.8890
vn -0.0000 0.3144 -0.9493
vn -0.0000 -0.3133 -0.9496
vn -0.2979 0.6277 -0.7192
vn -0.2979 0.6277 0.7192
vn -0.3815 -0.0156 -0.9242
vn -0.3689 0.2662 -0.8905
vn -0.9465 0.3228 0.0000
vn -0.9476 -0.3195 0.0000
vn -0.9241 -0.0153 -0.3819
vn -0.7885 0.6150 -0.0000
vn -0.2306 -0.7875 -0.5715
vn -0.2306 -0.7875 0.5715
vn -0.6476 -0.7145 -0.2648
vn -0.0000 -0.9004 -0.4350
vn -0.6476 -0.7145 0.2648
vn -0.0000 -1.0000 0.0000
vn -0.5914 -0.8064 0.0000
vn -0.8726 -0.4884 0.0000
vn 0.0000 -0.4501 -0.8930
vn -0.0000 -0.0160 -0.9999
vn -0.0000 -0.4501 0.8930
vn -0.0000 -0.9004 0.4350
vn -0.0000 -0.0160 0.9999
vn 0.0000 1.0000 0.0000
vn 0.0000 -0.3133 0.9496
vn 0.0000 0.3144 0.9493
vn 0.0000 0.6992 0.7150
vn 0.8905 0.2662 -0.3689
vn 0.8890 -0.2721 -0.3682
vn 0.3682 -0.2721 0.8890
vn 0.9241 -0.0153 0.3819
vn 0.7411 0.5972 0.3070
vn 0.9999 -0.0155 0.0000
vn 0.8905 0.2662 0.3689
vn 0.3689 0.2662 0.8905
vn 0.7411 0.5972 -0.3070
vn 0.8890 -0.2721 0.3682
vn 0.3815 -0.0156 0.9242
vn 0.3682 -0.2721 -0.8890
vn 0.2979 0.6277 -0.7192
vn 0.2979 0.6277 0.7192
vn 0.3815 -0.0156 -0.9242
vn 0.3689 0.2662 -0.8905
vn 0.9465 0.3228 0.0000
vn 0.9476 -0.3195 0.0000
vn 0.9241 -0.0153 -0.3819
vn 0.7885 0.6150 -0.0000
vn 0.2306 -0.7875 -0.5715
vn 0.2306 -0.7875 0.5715
vn 0.6476 -0.7145 -0.2648
vn 0.6476 -0.7145 0.2648
vn 0.5914 -0.8064 0.0000
vn 0.8726 -0.4884 0.0000
usemtl None
s off
f 15/1/1 14/2/1 4/3/1 5/4/1
f 17/5/2 15/1/2 5/4/2 6/6/2
f 12/7/3 11/8/3 2/9/3 3/10/3
f 68/11/4 61/12/4 7/13/4 19/14/4
f 26/15/5 24/16/5 3/17/5 18/18/5
f 1/19/6 20/20/6 13/21/6
f 25/22/7 26/15/7 18/18/7 17/5/7
f 2/23/8 1/19/8 13/21/8 16/24/8
f 11/8/9 10/25/9 1/26/9 2/9/9
f 14/2/10 19/27/10 4/3/10
f 3/17/11 2/23/11 16/24/11 18/18/11
f 24/28/12 22/29/12 12/7/12 3/10/12
f 6/30/13 5/31/13 8/32/13 9/33/13
f 61/34/14 62/35/14 8/32/14 7/36/14
f 62/35/15 63/37/15 9/33/15 8/32/15
f 4/38/16 19/39/16 7/36/16
f 10/25/17 20/40/17 1/26/17
f 21/41/18 23/42/18 6/30/18 9/33/18
f 5/31/19 4/38/19 7/36/19 8/32/19
f 14/2/20 15/1/20 16/24/20 13/21/20
f 15/1/21 17/5/21 18/18/21 16/24/21
f 23/43/22 25/22/22 17/5/22 6/6/22
f 19/27/23 14/2/23 13/21/23 20/20/23
f 30/44/24 23/45/24 21/46/24
f 29/47/25 22/48/25 24/49/25
f 30/44/26 25/50/26 23/45/26
f 71/51/27 70/52/27 30/44/27 21/46/27
f 29/47/28 24/49/28 26/53/28
f 73/54/29 27/55/29 28/56/29 74/57/29
f 25/50/30 30/44/30 29/47/30 26/53/30
f 28/58/31 27/59/31 29/60/31 30/61/31
f 74/62/32 28/63/32 30/64/32 70/65/32
f 71/66/33 21/41/33 9/33/33 63/37/33
f 27/67/34 73/68/34 69/69/34 29/70/34
f 22/48/35 29/47/35 69/71/35 72/72/35
f 22/29/36 72/73/36 66/74/36 12/7/36
f 20/75/37 67/76/37 68/11/37 19/14/37
f 11/8/38 12/7/38 66/74/38 65/77/38
f 10/25/39 11/8/39 65/77/39 64/78/39
f 20/75/40 10/79/40 64/80/40 67/76/40
f 45/81/41 35/82/41 34/83/41 44/84/41
f 47/85/42 36/86/42 35/82/42 45/81/42
f 42/87/43 33/88/43 32/89/43 41/90/43
f 68/11/4 49/91/4 37/92/4 61/12/4
f 56/93/44 48/94/44 33/95/44 54/96/44
f 31/97/45 43/98/45 50/99/45
f 55/100/46 47/85/46 48/94/46 56/93/46
f 32/101/47 46/102/47 43/98/47 31/97/47
f 41/90/48 32/89/48 31/103/48 40/104/48
f 44/84/49 34/83/49 49/105/49
f 33/95/50 48/94/50 46/102/50 32/101/50
f 54/106/51 33/88/51 42/87/51 52/107/51
f 36/108/52 39/109/52 38/110/52 35/111/52
f 61/34/14 37/112/14 38/110/14 62/35/14
f 62/35/15 38/110/15 39/109/15 63/37/15
f 34/113/53 37/112/53 49/114/53
f 40/104/54 31/103/54 50/115/54
f 51/116/55 39/109/55 36/108/55 53/117/55
f 35/111/56 38/110/56 37/112/56 34/113/56
f 44/84/57 43/98/57 46/102/57 45/81/57
f 45/81/58 46/102/58 48/94/58 47/85/58
f 53/118/59 36/86/59 47/85/59 55/100/59
f 49/105/60 50/99/60 43/98/60 44/84/60
f 60/119/61 51/120/61 53/121/61
f 59/122/62 54/123/62 52/124/62
f 60/119/63 53/121/63 55/125/63
f 71/51/27 51/120/27 60/119/27 70/52/27
f 59/122/64 56/126/64 54/123/64
f 73/54/29 74/57/29 58/127/29 57/128/29
f 55/125/65 56/126/65 59/122/65 60/119/65
f 58/129/66 60/130/66 59/131/66 57/132/66
f 74/62/32 70/65/32 60/133/32 58/134/32
f 71/66/33 63/37/33 39/109/33 51/116/33
f 57/135/34 59/136/34 69/69/34 73/68/34
f 52/124/35 72/72/35 69/71/35 59/122/35
f 52/107/36 42/87/36 66/74/36 72/73/36
f 50/137/37 49/91/37 68/11/37 67/76/37
f 41/90/38 65/77/38 66/74/38 42/87/38
f 40/104/39 64/78/39 65/77/39 41/90/39
f 50/137/40 67/76/40 64/80/40 40/138/40
o leg_球体.002
v -0.817137 -0.841058 0.072674
v -0.817137 -0.841058 -0.072674
v -0.576863 -0.803715 0.122146
v -0.576863 -0.876419 0.072674
v -0.576863 -0.632128 0.072674
v -0.576863 -0.704831 0.122146
v -0.576863 -0.876419 -0.072674
v -0.576863 -0.803715 -0.122145
v -0.576863 -0.704831 -0.122145
v -0.576863 -0.632128 -0.072674
v -0.750013 -1.026981 0.072674
v -0.797161 -0.896391 0.122146
v -0.750013 -1.026981 -0.072674
v -0.769990 -0.971648 0.122146
v -0.797161 -0.896391 -0.122145
v -0.769990 -0.971648 -0.122145
v 0.817137 -0.841058 0.072674
v 0.817137 -0.841058 -0.072674
v 0.576863 -0.803715 0.122146
v 0.576863 -0.876419 0.072674
v 0.576863 -0.632128 0.072674
v 0.576863 -0.704831 0.122146
v 0.576863 -0.876419 -0.072674
v 0.576863 -0.803715 -0.122145
v 0.576863 -0.704831 -0.122145
v 0.576863 -0.632128 -0.072674
v 0.750013 -1.026981 0.072674
v 0.797161 -0.896391 0.122146
v 0.750013 -1.026981 -0.072674
v 0.769990 -0.971648 0.122146
v 0.797161 -0.896391 -0.122145
v 0.769990 -0.971648 -0.122145
vt 0.513156 0.563166
vt 0.496626 0.577540
vt 0.496626 0.512868
vt 0.513156 0.506471
vt 0.496063 0.799100
vt 0.496063 0.728565
vt 0.528261 0.728565
vt 0.528261 0.799100
vt 0.528261 0.685407
vt 0.528261 0.717606
vt 0.515229 0.728565
vt 0.497504 0.728565
vt 0.484472 0.717606
vt 0.484472 0.685407
vt 0.497504 0.674448
vt 0.515229 0.674448
vt 0.525310 0.623617
vt 0.525310 0.674448
vt 0.513156 0.669744
vt 0.513156 0.613049
vt 0.484472 0.658643
vt 0.484472 0.588108
vt 0.496626 0.598676
vt 0.496626 0.663347
vt 0.484472 0.588108
vt 0.484472 0.517572
vt 0.075585 0.766732
vt 0.107783 0.766732
vt 0.107783 0.817562
vt 0.075585 0.817562
vt 0.525310 0.501767
vt 0.525310 0.552598
vt 0.513156 0.563166
vt 0.513156 0.506471
vt 0.496626 0.512868
vt 0.496626 0.577540
vt 0.496063 0.799100
vt 0.528261 0.799100
vt 0.528261 0.728565
vt 0.496063 0.728565
vt 0.528261 0.685407
vt 0.515229 0.674448
vt 0.497504 0.674448
vt 0.484472 0.685407
vt 0.484472 0.717606
vt 0.497504 0.728565
vt 0.515229 0.728565
vt 0.528261 0.717606
vt 0.525310 0.623617
vt 0.513156 0.613049
vt 0.513156 0.669744
vt 0.525310 0.674448
vt 0.484472 0.658643
vt 0.496626 0.663347
vt 0.496626 0.598676
vt 0.484472 0.588108
vt 0.484472 0.588108
vt 0.484472 0.517572
vt 0.075585 0.766732
vt 0.075585 0.817562
vt 0.107783 0.817562
vt 0.107783 0.766732
vt 0.525310 0.552598
vt 0.525310 0.501767
vn 0.0000 -0.0000 1.0000
vn -0.6562 0.7546 0.0000
vn -0.9406 -0.3396 -0.0000
vn 0.4394 -0.5053 -0.7427
vn -0.4394 0.5053 -0.7427
vn -0.4394 0.5053 0.7427
vn 0.6562 -0.7546 -0.0000
vn 0.4394 -0.5053 0.7427
vn 0.0000 0.0000 -1.0000
vn 0.6562 0.7546 0.0000
vn 0.9406 -0.3396 0.0000
vn -0.4394 -0.5053 -0.7427
vn 0.4394 0.5053 -0.7427
vn 0.4394 0.5053 0.7427
vn -0.6562 -0.7546 -0.0000
vn -0.4394 -0.5053 0.7427
usemtl None
s off
f 77/139/67 80/140/67 86/141/67 88/142/67
f 84/143/68 76/144/68 75/145/68 79/146/68
f 75/147/69 76/148/69 89/149/69 90/150/69 87/151/69 85/152/69 88/153/69 86/154/69
f 81/155/70 87/156/70 90/157/70 82/158/70
f 76/159/71 84/160/71 83/161/71 89/162/71
f 79/163/72 75/164/72 86/141/72 80/140/72
f 85/165/73 87/166/73 81/167/73 78/168/73
f 88/142/74 85/169/74 78/170/74 77/139/74
f 90/157/75 89/162/75 83/161/75 82/158/75
f 93/171/67 104/172/67 102/173/67 96/174/67
f 100/175/76 95/176/76 91/177/76 92/178/76
f 91/179/77 102/180/77 104/181/77 101/182/77 103/183/77 106/184/77 105/185/77 92/186/77
f 97/187/78 98/188/78 106/189/78 103/190/78
f 92/191/79 105/192/79 99/193/79 100/194/79
f 95/195/80 96/174/80 102/173/80 91/196/80
f 101/197/81 94/198/81 97/199/81 103/200/81
f 104/172/82 93/171/82 94/201/82 101/202/82
f 106/189/75 98/188/75 99/193/75 105/192/75
