# Blender v2.91.2 OBJ File: 'foundation.blend'
# www.blender.org
mtllib foundation.mtl
o çƒä½“
v 0.584945 0.075958 0.927048
v 0.573828 0.134667 0.871160
v 0.560528 0.187524 0.804294
v 0.415055 0.075958 0.927048
v 0.741903 0.075958 0.862034
v 0.710245 0.134667 0.814654
v 0.672369 0.187524 0.757968
v 0.258097 0.075958 0.862034
v 0.862034 0.075958 0.741904
v 0.814654 0.134667 0.710245
v 0.757968 0.187524 0.672369
v 0.137966 0.075958 0.741903
v 0.927048 0.075958 0.584945
v 0.871160 0.134667 0.573828
v 0.804294 0.187524 0.560528
v 0.072952 0.075958 0.584945
v 0.927048 0.075958 0.415055
v 0.871160 0.134667 0.426172
v 0.804294 0.187524 0.439472
v 0.072952 0.075958 0.415055
v 0.862034 0.075958 0.258097
v 0.814654 0.134667 0.289755
v 0.757968 0.187524 0.327631
v 0.137966 0.075958 0.258097
v 0.741903 0.075958 0.137966
v 0.710245 0.134667 0.185346
v 0.672369 0.187524 0.242032
v 0.258096 0.075958 0.137966
v 0.500000 0.297860 0.500000
v 0.584945 0.075958 0.072952
v 0.573828 0.134667 0.128841
v 0.560528 0.187524 0.195706
v 0.415055 0.075958 0.072952
v 0.415055 0.075958 0.072952
v 0.426172 0.134667 0.128841
v 0.439472 0.187524 0.195706
v 0.584945 0.075958 0.072952
v 0.258096 0.075958 0.137966
v 0.289755 0.134667 0.185346
v 0.327631 0.187524 0.242032
v 0.741903 0.075958 0.137966
v 0.137966 0.075958 0.258097
v 0.185346 0.134667 0.289755
v 0.242032 0.187524 0.327631
v 0.862034 0.075958 0.258097
v 0.072952 0.075958 0.415055
v 0.128840 0.134667 0.426172
v 0.195706 0.187524 0.439472
v 0.927048 0.075958 0.415055
v 0.072952 0.075958 0.584945
v 0.128840 0.134667 0.573828
v 0.195706 0.187524 0.560528
v 0.927048 0.075958 0.584945
v 0.137966 0.075958 0.741903
v 0.185346 0.134667 0.710245
v 0.242032 0.187524 0.672369
v 0.862034 0.075958 0.741904
v 0.258097 0.075958 0.862034
v 0.289755 0.134667 0.814654
v 0.327631 0.187524 0.757968
v 0.584945 0.075958 0.927048
v 0.415055 0.075958 0.927048
v 0.426172 0.134667 0.871159
v 0.439472 0.187524 0.804294
v 0.741903 0.075958 0.862034
v 0.589510 -0.000000 0.950000
v 0.410489 -0.000000 0.950000
v 0.245096 0.000000 0.881492
v 0.118509 0.000000 0.754905
v 0.050000 0.000000 0.589511
v 0.050000 0.000000 0.410490
v 0.118508 0.000000 0.245096
v 0.245095 0.000000 0.118509
v 0.410489 0.000000 0.050000
v 0.589510 0.000000 0.050000
v 0.754904 0.000000 0.118508
v 0.881491 0.000000 0.245096
v 0.950000 0.000000 0.410489
v 0.950000 0.000000 0.589511
v 0.881492 0.000000 0.754905
v 0.754905 0.000000 0.881492
v 0.500000 0.000000 0.500000
v 0.509230 0.292407 0.546404
v 0.543902 0.231994 0.720713
v 0.517437 0.280739 0.587663
v 0.527711 0.263455 0.639311
v 0.625024 0.231994 0.687111
v 0.526286 0.292407 0.539340
v 0.578913 0.263455 0.618102
v 0.549657 0.280739 0.574317
v 0.687111 0.231994 0.625024
v 0.539340 0.292407 0.526286
v 0.618102 0.263455 0.578913
v 0.574317 0.280739 0.549657
v 0.720712 0.231994 0.543903
v 0.546404 0.292407 0.509230
v 0.639311 0.263455 0.527711
v 0.587663 0.280739 0.517437
v 0.720712 0.231994 0.456098
v 0.546404 0.292407 0.490770
v 0.639311 0.263455 0.472289
v 0.587663 0.280739 0.482563
v 0.687111 0.231994 0.374977
v 0.539340 0.292407 0.473714
v 0.618102 0.263455 0.421087
v 0.574317 0.280739 0.450343
v 0.625023 0.231994 0.312889
v 0.526286 0.292407 0.460660
v 0.578913 0.263455 0.381898
v 0.549657 0.280739 0.425683
v 0.543902 0.231994 0.279288
v 0.509230 0.292407 0.453596
v 0.527711 0.263455 0.360689
v 0.517437 0.280739 0.412337
v 0.456097 0.231994 0.279288
v 0.490770 0.292407 0.453596
v 0.472289 0.263455 0.360689
v 0.482563 0.280739 0.412338
v 0.374976 0.231994 0.312889
v 0.473714 0.292407 0.460660
v 0.421087 0.263455 0.381898
v 0.450343 0.280739 0.425683
v 0.312889 0.231994 0.374977
v 0.460660 0.292407 0.473714
v 0.381898 0.263455 0.421087
v 0.425683 0.280739 0.450343
v 0.279287 0.231994 0.456098
v 0.453596 0.292407 0.490770
v 0.360689 0.263455 0.472289
v 0.412337 0.280739 0.482563
v 0.279287 0.231994 0.543903
v 0.453596 0.292407 0.509230
v 0.360689 0.263455 0.527711
v 0.412337 0.280739 0.517437
v 0.312889 0.231994 0.625024
v 0.460660 0.292407 0.526286
v 0.381898 0.263455 0.578913
v 0.425683 0.280739 0.549657
v 0.374976 0.231994 0.687111
v 0.473714 0.292407 0.539340
v 0.421087 0.263455 0.618102
v 0.450343 0.280739 0.574317
v 0.456098 0.231994 0.720712
v 0.490770 0.292407 0.546404
v 0.472289 0.263455 0.639311
v 0.482563 0.280739 0.587663
vt 0.064427 0.683601
vt 0.017698 0.663025
vt 0.050398 0.584947
vt 0.092848 0.615741
vt 0.827237 0.402280
vt 0.748622 0.402280
vt 0.758277 0.347957
vt 0.815298 0.347957
vt 0.675991 0.372171
vt 0.705596 0.326118
vt 0.260110 0.878817
vt 0.244729 0.790154
vt 0.293390 0.781510
vt 0.306000 0.854200
vt 0.802307 0.230075
vt 0.791231 0.234667
vt 0.785097 0.204507
vt 0.195683 0.797379
vt 0.195683 0.686961
vt 0.244729 0.694186
vt 0.620402 0.316536
vt 0.665276 0.285765
vt 0.213380 0.584947
vt 0.260110 0.605523
vt 0.293390 0.702831
vt 0.195683 0.584947
vt 0.195683 0.584947
vt 0.195683 0.584947
vt 0.195683 0.584947
vt 0.779242 0.234667
vt 0.590318 0.243846
vt 0.643455 0.233041
vt 0.635345 0.879615
vt 0.602644 0.801537
vt 0.649374 0.780961
vt 0.677795 0.848820
vt 0.306000 0.630140
vt 0.195683 0.584947
vt 0.195683 0.584947
vt 0.768166 0.230075
vt 0.590318 0.165167
vt 0.643455 0.175973
vt 0.584947 0.699523
vt 0.633993 0.692298
vt 0.652751 0.409013
vt 0.584947 0.341153
vt 0.195683 0.584947
vt 0.195683 0.584947
vt 0.195683 0.584947
vt 0.195683 0.584947
vt 0.620402 0.092477
vt 0.665276 0.123249
vt 0.759689 0.221591
vt 0.682654 0.683653
vt 0.695264 0.756343
vt 0.195683 0.584947
vt 0.195683 0.584947
vt 0.195683 0.584947
vt 0.195683 0.584947
vt 0.584947 0.589105
vt 0.633993 0.596330
vt 0.675991 0.036842
vt 0.705596 0.082895
vt 0.755101 0.210506
vt 0.682654 0.604974
vt 0.195683 0.584947
vt 0.195683 0.584947
vt 0.602644 0.487091
vt 0.649374 0.507667
vt 0.748622 0.006733
vt 0.758277 0.061056
vt 0.755101 0.198507
vt 0.695264 0.532284
vt 0.195683 0.584947
vt 0.195683 0.584947
vt 0.635345 0.409013
vt 0.677795 0.439807
vt 0.827237 0.006733
vt 0.815298 0.061056
vt 0.759689 0.187422
vt 0.584947 0.067860
vt 0.652751 0.000000
vt 0.888301 0.409013
vt 0.905999 0.511027
vt 0.856953 0.518252
vt 0.841572 0.429589
vt 0.899867 0.036842
vt 0.867979 0.082895
vt 0.768166 0.178938
vt 0.195683 0.584947
vt 0.195683 0.584947
vt 0.905999 0.621445
vt 0.856953 0.614220
vt 0.808292 0.526896
vt 0.795682 0.454207
vt 0.955456 0.092477
vt 0.908299 0.123249
vt 0.779243 0.174346
vt 0.195683 0.584947
vt 0.195683 0.584947
vt 0.888301 0.723459
vt 0.841572 0.702883
vt 0.808292 0.605576
vt 0.985541 0.165167
vt 0.930120 0.175973
vt 0.791231 0.174346
vt 0.195683 0.584947
vt 0.195683 0.584947
vt 0.855600 0.801537
vt 0.813151 0.770742
vt 0.795682 0.678266
vt 0.985541 0.243846
vt 0.930120 0.233041
vt 0.802307 0.178938
vt 0.195683 0.584947
vt 0.195683 0.584947
vt 0.195683 0.584947
vt 0.195683 0.584947
vt 0.017697 0.977471
vt 0.000000 0.875457
vt 0.049046 0.868232
vt 0.064427 0.956895
vt 0.925821 0.000000
vt 0.993625 0.067860
vt 0.810784 0.187422
vt 0.955456 0.316536
vt 0.908299 0.285764
vt 0.195683 0.584947
vt 0.195683 0.584947
vt 0.000000 0.765039
vt 0.049046 0.772264
vt 0.097707 0.859588
vt 0.110317 0.932278
vt 0.815372 0.198507
vt 0.097707 0.780908
vt 0.815372 0.210506
vt 0.899867 0.372171
vt 0.867979 0.326118
vt 0.993625 0.341153
vt 0.925821 0.409013
vt 0.110317 0.708218
vt 0.195683 0.584947
vt 0.195683 0.584947
vt 0.810784 0.221591
vt 0.356019 0.805829
vt 0.373717 0.907843
vt 0.324649 0.916293
vt 0.306000 0.808797
vt 0.213381 0.899393
vt 0.745283 0.712169
vt 0.762981 0.814183
vt 0.713913 0.822633
vt 0.695264 0.715137
vt 0.160410 0.807671
vt 0.169577 0.910802
vt 0.119977 0.915149
vt 0.110317 0.806476
vt 0.795682 0.421659
vt 0.762981 0.499737
vt 0.713913 0.491287
vt 0.748371 0.409013
vt 0.991364 0.417688
vt 0.965259 0.498211
vt 0.915658 0.493864
vt 0.943167 0.409013
vt 0.195683 0.991325
vt 0.147486 1.000000
vt 0.795682 0.892261
vt 0.748371 0.904907
vt 0.956092 0.601342
vt 0.905999 0.602537
vt 0.195683 0.597442
vt 0.169577 0.697634
vt 0.119977 0.690524
vt 0.147486 0.584947
vt 0.373717 0.593397
vt 0.356019 0.695411
vt 0.306000 0.692443
vt 0.324649 0.584947
vt 0.965259 0.711379
vt 0.915658 0.718489
vt 0.745283 0.601751
vt 0.695264 0.598783
vt 0.991364 0.811572
vt 0.943167 0.824066
vt 0.540421 0.126801
vt 0.584947 0.234297
vt 0.292473 0.292474
vt 0.584947 0.350650
vt 0.540420 0.458147
vt 0.458146 0.540421
vt 0.350650 0.584947
vt 0.234297 0.584947
vt 0.126800 0.540421
vt 0.044526 0.458146
vt 0.000000 0.350650
vt 0.000000 0.234297
vt 0.044527 0.126800
vt 0.126801 0.044526
vt 0.234297 0.000000
vt 0.350650 0.000000
vt 0.458147 0.044527
vt 0.803976 0.295050
vt 0.837227 0.281266
vt 0.796860 0.261482
vt 0.817784 0.252808
vt 0.774212 0.261482
vt 0.767984 0.295050
vt 0.753289 0.252808
vt 0.734733 0.281266
vt 0.737274 0.236781
vt 0.709283 0.255796
vt 0.728607 0.215840
vt 0.695510 0.222517
vt 0.728607 0.193173
vt 0.695510 0.186496
vt 0.737274 0.172232
vt 0.709283 0.153218
vt 0.753289 0.156205
vt 0.734733 0.127747
vt 0.774212 0.147531
vt 0.767984 0.113963
vt 0.796860 0.147531
vt 0.803976 0.113963
vt 0.817784 0.156205
vt 0.837227 0.127747
vt 0.833798 0.172232
vt 0.862677 0.153218
vt 0.876450 0.186496
vt 0.842465 0.193173
vt 0.842465 0.215840
vt 0.876450 0.222517
vt 0.833798 0.236781
vt 0.862677 0.255796
vn -0.0000 0.6895 0.7243
vn 0.3321 0.8828 0.3321
vn 0.4339 0.8828 0.1797
vn 0.2373 0.7845 0.5729
vn 0.0447 0.9932 0.1078
vn 0.5122 0.6895 0.5122
vn 0.4697 0.8828 0.0000
vn 0.6692 0.6895 0.2772
vn 0.4385 0.7845 0.4385
vn 0.0000 0.0000 1.0000
vn 0.0825 0.9932 0.0825
vn 0.4340 0.8828 -0.1797
vn 0.7243 0.6895 0.0000
vn 0.5729 0.7845 0.2373
vn 0.1078 0.9932 0.0447
vn 0.3321 0.8828 -0.3321
vn 0.6692 0.6895 -0.2772
vn 0.6201 0.7845 0.0000
vn 0.1797 0.8828 -0.4340
vn 0.1167 0.9932 0.0000
vn 0.5729 0.7845 -0.2373
vn 0.5122 0.6895 -0.5122
vn -0.0000 0.8828 -0.4697
vn 0.1078 0.9932 -0.0447
vn 0.4385 0.7845 -0.4385
vn 0.2772 0.6895 -0.6692
vn -0.1797 0.8828 -0.4340
vn 0.0825 0.9932 -0.0825
vn 0.2373 0.7845 -0.5729
vn -0.0000 0.6895 -0.7243
vn -0.3321 0.8828 -0.3321
vn 0.0447 0.9932 -0.1078
vn 0.0000 0.7845 -0.6201
vn -0.2772 0.6895 -0.6692
vn -0.4340 0.8828 -0.1797
vn 0.0000 0.9932 -0.1167
vn -0.5122 0.6895 -0.5122
vn -0.2373 0.7845 -0.5729
vn -0.4697 0.8828 0.0000
vn -0.0447 0.9932 -0.1078
vn -0.6692 0.6895 -0.2772
vn -0.4385 0.7845 -0.4385
vn -0.4340 0.8828 0.1797
vn -0.0825 0.9932 -0.0825
vn -0.7243 0.6895 0.0000
vn -0.5729 0.7845 -0.2373
vn -0.3321 0.8828 0.3321
vn -0.1078 0.9932 -0.0447
vn -0.6692 0.6895 0.2772
vn -0.6201 0.7845 0.0000
vn -0.1167 0.9932 0.0000
vn -0.1797 0.8828 0.4340
vn -0.5122 0.6895 0.5122
vn -0.5729 0.7845 0.2373
vn -0.1078 0.9932 0.0447
vn -0.2772 0.6895 0.6692
vn -0.4385 0.7845 0.4385
vn -0.0825 0.9932 0.0825
vn -0.0000 0.8828 0.4697
vn -0.0000 0.7845 0.6201
vn -0.2373 0.7845 0.5729
vn -0.0447 0.9932 0.1078
vn 0.8844 0.2892 -0.3663
vn 0.2772 0.6895 0.6692
vn -0.0000 0.9932 0.1167
vn -0.8844 0.2892 0.3663
vn -0.3663 0.2892 -0.8844
vn -0.0000 0.2892 0.9573
vn 0.9573 0.2892 0.0000
vn -0.0000 0.2892 -0.9573
vn -0.9573 0.2892 0.0000
vn 0.8844 0.2892 0.3663
vn -0.8844 0.2892 -0.3663
vn 0.3663 0.2892 -0.8844
vn 0.6769 0.2892 0.6769
vn -0.3663 0.2892 0.8844
vn -0.6769 0.2892 -0.6769
vn 0.6769 0.2892 -0.6769
vn 0.3663 0.2892 0.8844
vn -0.6769 0.2892 0.6769
vn 0.0000 -1.0000 -0.0000
vn 0.1380 0.9328 0.3331
vn 0.1214 0.9483 0.2932
vn 0.1041 0.9623 0.2514
vn 0.1924 0.9623 0.1924
vn 0.2244 0.9483 0.2244
vn 0.2549 0.9328 0.2549
vn 0.2514 0.9623 0.1041
vn 0.2932 0.9483 0.1214
vn 0.3331 0.9328 0.1380
vn 0.2721 0.9623 0.0000
vn 0.3173 0.9483 0.0000
vn 0.3605 0.9328 0.0000
vn 0.2514 0.9623 -0.1041
vn 0.2932 0.9483 -0.1214
vn 0.3331 0.9328 -0.1380
vn 0.1924 0.9623 -0.1924
vn 0.2244 0.9483 -0.2244
vn 0.2549 0.9328 -0.2549
vn 0.1041 0.9623 -0.2514
vn 0.1214 0.9483 -0.2932
vn 0.1380 0.9328 -0.3331
vn -0.0000 0.9623 -0.2721
vn -0.0000 0.9483 -0.3173
vn -0.0000 0.9328 -0.3605
vn -0.1041 0.9623 -0.2514
vn -0.1214 0.9483 -0.2932
vn -0.1380 0.9328 -0.3331
vn -0.1924 0.9623 -0.1924
vn -0.2244 0.9483 -0.2244
vn -0.2549 0.9328 -0.2549
vn -0.2514 0.9623 -0.1041
vn -0.2932 0.9483 -0.1214
vn -0.3331 0.9328 -0.1380
vn -0.2721 0.9623 0.0000
vn -0.3173 0.9483 0.0000
vn -0.3605 0.9328 0.0000
vn -0.3331 0.9328 0.1380
vn -0.2932 0.9483 0.1214
vn -0.2514 0.9623 0.1041
vn -0.1924 0.9623 0.1924
vn -0.2244 0.9483 0.2244
vn -0.2549 0.9328 0.2549
vn -0.1041 0.9623 0.2514
vn -0.1214 0.9483 0.2932
vn -0.1380 0.9328 0.3331
vn -0.0000 0.9623 0.2721
vn -0.0000 0.9483 0.3173
vn -0.0000 0.9328 0.3605
vn 0.1797 0.8828 0.4340
usemtl æè´¨
s off
f 63/1/1 62/2/1 1/3/1 2/4/1
f 7/5/2 11/6/2 91/7/2 87/8/2
f 11/6/3 15/9/3 95/10/3 91/7/3
f 2/11/4 6/12/4 7/13/4 3/14/4
f 83/15/5 88/16/5 29/17/5
f 5/18/6 9/19/6 10/20/6 6/12/6
f 15/9/7 19/21/7 99/22/7 95/10/7
f 9/19/8 13/23/8 14/24/8 10/20/8
f 6/12/9 10/20/9 11/25/9 7/13/9
f 58/26/10 54/27/10 12/28/10 8/29/10
f 88/16/11 92/30/11 29/17/11
f 19/21/12 23/31/12 103/32/12 99/22/12
f 13/33/13 17/34/13 18/35/13 14/36/13
f 10/20/14 14/24/14 15/37/14 11/25/14
f 54/27/10 50/38/10 16/39/10 12/28/10
f 92/30/15 96/40/15 29/17/15
f 23/31/16 27/41/16 107/42/16 103/32/16
f 17/34/17 21/43/17 22/44/17 18/35/17
f 14/45/18 18/46/18 19/21/18 15/9/18
f 30/47/10 25/48/10 41/49/10 37/50/10
f 27/41/19 32/51/19 111/52/19 107/42/19
f 96/40/20 100/53/20 29/17/20
f 18/35/21 22/44/21 23/54/21 19/55/21
f 21/56/10 17/57/10 49/58/10 45/59/10
f 21/43/22 25/60/22 26/61/22 22/44/22
f 32/51/23 36/62/23 115/63/23 111/52/23
f 100/53/24 104/64/24 29/17/24
f 22/44/25 26/61/25 27/65/25 23/54/25
f 50/38/10 46/66/10 20/67/10 16/39/10
f 25/60/26 30/68/26 31/69/26 26/61/26
f 36/62/27 40/70/27 119/71/27 115/63/27
f 104/64/28 108/72/28 29/17/28
f 26/61/29 31/69/29 32/73/29 27/65/29
f 17/57/10 13/74/10 53/75/10 49/58/10
f 30/68/30 34/76/30 35/77/30 31/69/30
f 40/70/31 44/78/31 123/79/31 119/71/31
f 108/72/32 112/80/32 29/17/32
f 31/81/33 35/82/33 36/62/33 32/51/33
f 25/48/10 21/56/10 45/59/10 41/49/10
f 34/83/34 38/84/34 39/85/34 35/86/34
f 44/78/35 48/87/35 127/88/35 123/79/35
f 112/80/36 116/89/36 29/17/36
f 46/66/10 42/90/10 24/91/10 20/67/10
f 38/84/37 42/92/37 43/93/37 39/85/37
f 35/86/38 39/85/38 40/94/38 36/95/38
f 48/87/39 52/96/39 131/97/39 127/88/39
f 116/89/40 120/98/40 29/17/40
f 13/74/10 9/99/10 57/100/10 53/75/10
f 42/92/41 46/101/41 47/102/41 43/93/41
f 39/85/42 43/93/42 44/103/42 40/94/42
f 52/96/43 56/104/43 135/105/43 131/97/43
f 120/98/44 124/106/44 29/17/44
f 42/90/10 38/107/10 28/108/10 24/91/10
f 46/101/45 50/109/45 51/110/45 47/102/45
f 43/93/46 47/102/46 48/111/46 44/103/46
f 56/104/47 60/112/47 139/113/47 135/105/47
f 124/106/48 128/114/48 29/17/48
f 1/115/10 62/116/10 4/117/10 61/118/10
f 50/119/49 54/120/49 55/121/49 51/122/49
f 47/123/50 51/124/50 52/96/50 48/87/50
f 128/114/51 132/125/51 29/17/51
f 60/112/52 64/126/52 143/127/52 139/113/52
f 9/99/10 5/128/10 65/129/10 57/100/10
f 54/120/53 58/130/53 59/131/53 55/121/53
f 51/122/54 55/121/54 56/132/54 52/133/54
f 132/125/55 136/134/55 29/17/55
f 58/130/56 62/2/56 63/1/56 59/131/56
f 55/121/57 59/131/57 60/135/57 56/132/57
f 62/116/10 58/26/10 8/29/10 4/117/10
f 136/134/58 140/136/58 29/17/58
f 64/126/59 3/137/59 84/138/59 143/127/59
f 64/126/60 63/139/60 2/140/60 3/137/60
f 59/131/61 63/1/61 64/141/61 60/135/61
f 38/107/10 34/142/10 33/143/10 28/108/10
f 140/136/62 144/144/62 29/17/62
f 45/145/63 49/146/63 78/147/63 77/148/63
f 5/128/10 1/115/10 61/118/10 65/129/10
f 34/142/10 30/47/10 37/50/10 33/143/10
f 1/149/64 5/18/64 6/12/64 2/11/64
f 83/15/65 29/17/65 144/144/65
f 12/150/66 16/151/66 70/152/66 69/153/66
f 28/154/67 33/155/67 74/156/67 73/157/67
f 61/158/68 4/159/68 67/160/68 66/161/68
f 49/162/69 53/163/69 79/164/69 78/165/69
f 33/155/70 37/166/70 75/167/70 74/156/70
f 16/151/71 20/168/71 71/169/71 70/152/71
f 53/163/72 57/170/72 80/171/72 79/164/72
f 20/172/73 24/173/73 72/174/73 71/175/73
f 37/176/74 41/177/74 76/178/74 75/179/74
f 57/170/75 65/180/75 81/181/75 80/171/75
f 4/159/76 8/182/76 68/183/76 67/160/76
f 24/173/77 28/154/77 73/157/77 72/174/77
f 41/177/78 45/145/78 77/148/78 76/178/78
f 65/180/79 61/184/79 66/185/79 81/181/79
f 8/182/80 12/150/80 69/153/80 68/183/80
f 66/186/81 67/187/81 82/188/81
f 67/187/81 68/189/81 82/188/81
f 68/189/81 69/190/81 82/188/81
f 69/190/81 70/191/81 82/188/81
f 70/191/81 71/192/81 82/188/81
f 71/192/81 72/193/81 82/188/81
f 72/193/81 73/194/81 82/188/81
f 73/194/81 74/195/81 82/188/81
f 74/195/81 75/196/81 82/188/81
f 75/196/81 76/197/81 82/188/81
f 76/197/81 77/198/81 82/188/81
f 77/198/81 78/199/81 82/188/81
f 78/199/81 79/200/81 82/188/81
f 79/200/81 80/201/81 82/188/81
f 80/201/81 81/202/81 82/188/81
f 81/202/81 66/186/81 82/188/81
f 84/138/82 87/8/82 89/203/82 86/204/82
f 86/204/83 89/203/83 90/205/83 85/206/83
f 85/206/84 90/205/84 88/16/84 83/15/84
f 92/30/85 88/16/85 90/205/85 94/207/85
f 94/207/86 90/205/86 89/203/86 93/208/86
f 93/208/87 89/203/87 87/8/87 91/7/87
f 96/40/88 92/30/88 94/207/88 98/209/88
f 98/209/89 94/207/89 93/208/89 97/210/89
f 97/210/90 93/208/90 91/7/90 95/10/90
f 100/53/91 96/40/91 98/209/91 102/211/91
f 102/211/92 98/209/92 97/210/92 101/212/92
f 101/212/93 97/210/93 95/10/93 99/22/93
f 104/64/94 100/53/94 102/211/94 106/213/94
f 106/213/95 102/211/95 101/212/95 105/214/95
f 105/214/96 101/212/96 99/22/96 103/32/96
f 108/72/97 104/64/97 106/213/97 110/215/97
f 110/215/98 106/213/98 105/214/98 109/216/98
f 109/216/99 105/214/99 103/32/99 107/42/99
f 112/80/100 108/72/100 110/215/100 114/217/100
f 114/217/101 110/215/101 109/216/101 113/218/101
f 113/218/102 109/216/102 107/42/102 111/52/102
f 116/89/103 112/80/103 114/217/103 118/219/103
f 118/219/104 114/217/104 113/218/104 117/220/104
f 117/220/105 113/218/105 111/52/105 115/63/105
f 120/98/106 116/89/106 118/219/106 122/221/106
f 122/221/107 118/219/107 117/220/107 121/222/107
f 121/222/108 117/220/108 115/63/108 119/71/108
f 124/106/109 120/98/109 122/221/109 126/223/109
f 126/223/110 122/221/110 121/222/110 125/224/110
f 125/224/111 121/222/111 119/71/111 123/79/111
f 128/114/112 124/106/112 126/223/112 130/225/112
f 130/225/113 126/223/113 125/224/113 129/226/113
f 129/226/114 125/224/114 123/79/114 127/88/114
f 132/125/115 128/114/115 130/225/115 134/227/115
f 134/227/116 130/225/116 129/226/116 133/228/116
f 133/228/117 129/226/117 127/88/117 131/97/117
f 131/97/118 135/105/118 137/229/118 133/228/118
f 133/228/119 137/229/119 138/230/119 134/227/119
f 134/227/120 138/230/120 136/134/120 132/125/120
f 140/136/121 136/134/121 138/230/121 142/231/121
f 142/231/122 138/230/122 137/229/122 141/232/122
f 141/232/123 137/229/123 135/105/123 139/113/123
f 144/144/124 140/136/124 142/231/124 146/233/124
f 146/233/125 142/231/125 141/232/125 145/234/125
f 145/234/126 141/232/126 139/113/126 143/127/126
f 83/15/127 144/144/127 146/233/127 85/206/127
f 85/206/128 146/233/128 145/234/128 86/204/128
f 86/204/129 145/234/129 143/127/129 84/138/129
f 84/138/130 3/137/130 7/5/130 87/8/130
